<?xml version="1.0" standalone="no"?><!DOCTYPE svg PUBLIC "-//W3C//DTD SVG 1.1//EN" "http://www.w3.org/Graphics/SVG/1.1/DTD/svg11.dtd"><svg t="1774189905906" class="icon" viewBox="0 0 1024 1024" version="1.1" xmlns="http://www.w3.org/2000/svg" p-id="1901" width="128" height="128" xmlns:xlink="http://www.w3.org/1999/xlink"><path d="M970.666667 522.666667h-917.333334c-4.266667 0-10.666667-4.266667-10.666666-10.666667s4.266667-10.666667 10.666666-10.666667h917.333334c6.4 0 10.666667 4.266667 10.666666 10.666667s-4.266667 10.666667-10.666666 10.666667z" fill="#ED1E79" p-id="1902"></path><path d="M512 981.333333c-6.4 0-10.666667-4.266667-10.666667-10.666666v-917.333334c0-6.4 6.4-10.666667 10.666667-10.666666s10.666667 4.266667 10.666667 10.666666v917.333334c0 6.4-4.266667 10.666667-10.666667 10.666666z" fill="#ED1E79" p-id="1903"></path><path d="M390.4 964.266667c-2.133333 0-6.4-2.133333-8.533333-4.266667-76.8-96-121.6-262.4-121.6-448s44.8-354.133333 121.6-448c4.266667-4.266667 10.666667-4.266667 14.933333-2.133333 4.266667 4.266667 4.266667 10.666667 2.133333 14.933333-72.533333 89.6-117.333333 256-117.333333 435.2 0 179.2 44.8 345.6 117.333333 435.2 4.266667 4.266667 2.133333 10.666667-2.133333 14.933333-2.133333 2.133333-4.266667 2.133333-6.4 2.133334zM635.733333 964.266667c-2.133333 0-4.266667 0-6.4-2.133334-4.266667-4.266667-4.266667-10.666667-2.133333-14.933333 72.533333-89.6 117.333333-256 117.333333-435.2 0-179.2-44.8-345.6-117.333333-435.2-4.266667-4.266667-2.133333-10.666667 2.133333-14.933333 4.266667-4.266667 10.666667-2.133333 14.933334 2.133333 76.8 96 121.6 262.4 121.6 448s-44.8 354.133333-121.6 448c-2.133333 4.266667-6.4 4.266667-8.533334 4.266667z" fill="#108EE9" p-id="1904"></path><path d="M915.2 332.8H106.666667c-6.4 0-10.666667-4.266667-10.666667-10.666667s4.266667-10.666667 10.666667-10.666666h808.533333c6.4 0 10.666667 4.266667 10.666667 10.666666s-4.266667 10.666667-10.666667 10.666667zM915.2 712.533333H106.666667c-6.4 0-10.666667-4.266667-10.666667-10.666666s4.266667-10.666667 10.666667-10.666667h808.533333c6.4 0 10.666667 4.266667 10.666667 10.666667s-4.266667 10.666667-10.666667 10.666666z" fill="#108EE9" p-id="1905"></path><path d="M512 981.333333C253.866667 981.333333 42.666667 770.133333 42.666667 512S253.866667 42.666667 512 42.666667s469.333333 211.2 469.333333 469.333333-209.066667 469.333333-469.333333 469.333333z m0-917.333333C266.666667 64 64 264.533333 64 512s200.533333 448 448 448 448-200.533333 448-448S759.466667 64 512 64z" fill="#108EE9" p-id="1906"></path></svg>